<svg width="67" height="79" viewBox="0 0 67 79" fill="none" xmlns="http://www.w3.org/2000/svg">
<path d="M4.94247 24.7191C2.21261 24.7191 -0.00012207 26.6527 -0.00012207 29.0436V47.5409C-0.00012207 49.9294 2.21288 51.8681 4.94247 51.8681C7.66961 51.8681 9.88506 49.9297 9.88506 47.5409V29.0436C9.88533 26.6551 7.66989 24.7191 4.94247 24.7191ZM42.3278 6.62971L46.6473 2.32239C47.1813 1.79087 47.1813 0.932881 46.6473 0.398642C46.1134 -0.132881 45.2529 -0.132881 44.7187 0.398642L39.4029 5.70518C37.5014 5.2402 35.4962 4.98326 33.4095 4.98326C31.3475 4.98326 29.3594 5.23803 27.4802 5.69051L22.1739 0.398914C21.6399 -0.132609 20.7768 -0.132609 20.2453 0.398914C19.7113 0.930437 19.7113 1.79087 20.2453 2.32266L24.5425 6.60771C17.3723 9.35712 12.39 15.3185 12.39 22.2465C12.39 22.3307 54.4238 22.2514 54.4238 22.2465C54.4262 15.3359 49.4712 9.38917 42.3278 6.62971ZM27.2254 17.3139C25.8582 17.3139 24.7528 16.2112 24.7528 14.8462C24.7528 13.4838 25.8579 12.3784 27.2254 12.3784C28.5929 12.3784 29.6981 13.4836 29.6981 14.8462C29.7005 16.2085 28.5878 17.3139 27.2254 17.3139ZM39.5909 17.3139C38.2236 17.3139 37.1182 16.2112 37.1182 14.8462C37.1182 13.4838 38.2234 12.3784 39.5909 12.3784C40.9581 12.3784 42.0635 13.4836 42.0635 14.8462C42.0635 16.2088 40.9557 17.3139 39.5909 17.3139ZM61.8192 24.7191C59.0894 24.7191 56.8742 26.6527 56.8742 29.0436V47.5409C56.8742 49.9294 59.0896 51.8681 61.8192 51.8681C64.5488 51.8681 66.7594 49.9272 66.7594 47.5409V29.0436C66.7594 26.6551 64.5439 24.7191 61.8192 24.7191ZM12.39 54.3136C12.39 58.3933 15.6984 61.6968 19.783 61.7114V74.6728C19.783 77.0637 21.996 78.9999 24.7256 78.9999C27.4527 78.9999 29.6658 77.064 29.6658 74.6728V61.7114H37.0935V74.6728C37.0935 77.0637 39.3065 78.9999 42.0361 78.9999C44.7632 78.9999 46.9762 77.064 46.9762 74.6728V61.7114H47.0083C51.1054 61.7114 54.426 58.3982 54.426 54.3136V24.7118H12.3925V54.3136H12.39Z" fill="white"/>
</svg>
