<svg width="22" height="22" viewBox="0 0 22 22" fill="none" xmlns="http://www.w3.org/2000/svg">
<g clip-path="url(#clip0)">
<path d="M15.2278 11.1018C15.1869 11.163 15.1869 11.2242 15.1665 11.3059C15.1461 11.5712 15.3502 11.8161 15.6155 11.8365C15.8808 11.8569 16.1257 11.6528 16.1461 11.3875C16.1461 11.3263 16.1461 11.265 16.1665 11.163C16.1665 11.061 16.1665 10.9997 16.1665 10.9385C16.1665 10.3467 16.0645 9.77523 15.8808 9.2242C15.6359 8.50991 15.2073 7.87725 14.6971 7.34663C14.0645 6.71397 13.289 6.26498 12.4114 6.02008C12.0032 5.91804 11.5542 5.85681 11.1257 5.85681C10.9828 5.85681 10.8399 5.85681 10.6767 5.87722C10.5338 5.89763 10.391 5.91804 10.2481 5.93845C9.9828 5.97926 9.79912 6.24457 9.86035 6.48947C9.90116 6.75478 10.1665 6.93846 10.4114 6.87723C10.5338 6.85682 10.6359 6.83642 10.7583 6.83642C10.7787 6.83642 10.7991 6.83642 10.8195 6.83642C10.9216 6.83642 11.0236 6.81601 11.1257 6.81601C12.2481 6.81601 13.289 7.26499 14.0237 8.0201C14.7584 8.75481 15.2073 9.75482 15.2278 10.8773V10.9181C15.2278 10.9997 15.2278 11.061 15.2278 11.1018Z" fill="#B7B7B7"/>
<path d="M17.9217 11.5507C17.9013 11.816 18.1054 12.0609 18.3707 12.0813C18.636 12.1017 18.8809 11.8977 18.9013 11.6323C18.9217 11.4079 18.9217 11.1834 18.9217 10.9589C18.9217 10.5099 18.8809 10.0813 18.8197 9.65274C18.5544 8.02006 17.7584 6.55066 16.636 5.4282C15.3502 4.14247 13.6359 3.30572 11.738 3.16286C11.5339 3.14246 11.3094 3.14246 11.1053 3.14246C10.8808 3.14246 10.6563 3.14246 10.4318 3.16286C10.2073 3.18327 9.98283 3.20368 9.75834 3.2445C9.49303 3.28531 9.30935 3.55062 9.37058 3.79552C9.41139 4.06083 9.6767 4.24451 9.9216 4.18328C10.0645 4.16288 10.1869 4.14247 10.3298 4.12206C10.391 4.12206 10.4522 4.10165 10.5134 4.10165C10.7175 4.08124 10.9216 4.08124 11.1053 4.08124C11.7992 4.08124 12.4522 4.18328 13.0849 4.36696C14.187 4.69349 15.1666 5.28534 15.9625 6.08127C16.6156 6.73433 17.1462 7.53026 17.4931 8.38741C17.7993 9.16293 17.9829 10.0201 17.9829 10.9181C17.9829 10.9793 17.9829 11.0609 17.9829 11.1221C17.9421 11.2854 17.9217 11.4079 17.9217 11.5507Z" fill="#B7B7B7"/>
<path d="M18.6156 3.46904C16.6768 1.53025 14.0237 0.346558 11.0849 0.346558C10.7788 0.346558 10.4726 0.366966 10.1665 0.387374C9.86038 0.407783 9.55426 0.4486 9.24813 0.509825C8.98282 0.550642 8.79914 0.815951 8.86037 1.06085C8.90119 1.32616 9.1665 1.50984 9.4114 1.44861C9.55426 1.4282 9.67671 1.40779 9.81957 1.38739C9.96242 1.36698 10.1053 1.34657 10.2481 1.34657C10.5339 1.32616 10.7992 1.30575 11.0849 1.30575C13.738 1.30575 16.1462 2.3874 17.9013 4.12211C19.636 5.85683 20.7177 8.26502 20.7177 10.9385C20.7177 11.0814 20.7177 11.2446 20.7177 11.3875C20.7177 11.51 20.6973 11.6324 20.6973 11.7753C20.6768 12.0406 20.8809 12.2855 21.1462 12.3059C21.4115 12.3263 21.6564 12.1222 21.6769 11.8569C21.6973 11.5508 21.7177 11.2446 21.7177 10.9589C21.7177 8.04053 20.534 5.38744 18.6156 3.46904Z" fill="#B7B7B7"/>
<path d="M20.9625 15.8365L17.3502 13.8977C16.1461 13.2447 16.1053 13.6733 14.84 15.0202C14.5339 15.3467 13.9624 16.2039 13.289 16.0406C11.8808 15.6937 9.24809 13.6324 8.39094 12.6936C7.98277 12.2447 6.22765 10.1018 6.20724 9.40789C6.16642 8.34666 8.49298 7.81604 7.73787 5.7956L6.12561 2.18332C4.61538 -1.28612 0.390843 4.26497 0.737786 6.85684C1.63576 13.2447 12.84 23.5713 19.0849 20.1631C20.4727 19.3876 22.3503 16.6733 20.9625 15.8365Z" fill="#B7B7B7"/>
</g>
<defs>
<clipPath id="clip0">
<rect width="21" height="21" fill="white" transform="translate(0.717651 0.0913086)"/>
</clipPath>
</defs>
</svg>
