<svg width="25" height="25" viewBox="0 0 25 25" fill="none" xmlns="http://www.w3.org/2000/svg">
<g clip-path="url(#clip0)">
<path d="M3.02112 8.98704C3.32471 9.20128 4.23987 9.83755 5.76662 10.8955C7.29343 11.9535 8.46306 12.7682 9.27558 13.3395C9.36484 13.4021 9.5545 13.5382 9.84463 13.748C10.1348 13.958 10.3759 14.1277 10.5678 14.2571C10.7598 14.3865 10.9919 14.5316 11.2643 14.6923C11.5367 14.8528 11.7934 14.9736 12.0345 15.0535C12.2756 15.1341 12.4988 15.174 12.7041 15.174H12.7176H12.7311C12.9364 15.174 13.1597 15.134 13.4008 15.0535C13.6418 14.9736 13.8988 14.8527 14.1709 14.6923C14.4431 14.5314 14.6753 14.3864 14.8673 14.2571C15.0593 14.1277 15.3002 13.958 15.5905 13.748C15.8805 13.538 16.0704 13.4021 16.1597 13.3395C16.981 12.7682 19.0705 11.3172 22.4275 8.98676C23.0792 8.5316 23.6238 7.98239 24.0612 7.33949C24.4989 6.69688 24.7176 6.02275 24.7176 5.31747C24.7176 4.7281 24.5054 4.22359 24.0813 3.80399C23.6572 3.38429 23.1549 3.17456 22.5747 3.17456H2.86036C2.1729 3.17456 1.64386 3.40667 1.27332 3.87088C0.902835 4.33519 0.71759 4.91555 0.71759 5.61192C0.71759 6.17441 0.963207 6.78395 1.45421 7.44016C1.94516 8.09642 2.46763 8.6121 3.02112 8.98704Z" fill="#B7B7B7"/>
<path d="M23.3781 10.42C20.4499 12.402 18.2264 13.9423 16.7087 15.0406C16.1998 15.4155 15.7869 15.7081 15.4699 15.9178C15.1528 16.1276 14.7312 16.3419 14.2043 16.5605C13.6776 16.7795 13.1867 16.8887 12.7313 16.8887H12.7176H12.7042C12.2488 16.8887 11.7577 16.7795 11.231 16.5605C10.7043 16.3419 10.2823 16.1276 9.96537 15.9178C9.6485 15.7081 9.23551 15.4155 8.72664 15.0406C7.52121 14.1568 5.3025 12.6164 2.07041 10.42C1.56135 10.081 1.11046 9.69231 0.71759 9.25488V19.8885C0.71759 20.4782 0.927322 20.9824 1.34702 21.402C1.76662 21.8218 2.27118 22.0317 2.8605 22.0317H22.5749C23.164 22.0317 23.6685 21.8218 24.0882 21.402C24.508 20.9822 24.7176 20.4782 24.7176 19.8885V9.25488C24.3336 9.68326 23.8873 10.0719 23.3781 10.42Z" fill="#B7B7B7"/>
</g>
<defs>
<clipPath id="clip0">
<rect width="24" height="24" fill="white" transform="matrix(-1 0 0 1 24.7177 0.603027)"/>
</clipPath>
</defs>
</svg>
