<svg width="66" height="79" viewBox="0 0 66 79" fill="none" xmlns="http://www.w3.org/2000/svg">
<path d="M54.606 41.9758C54.5063 31.9711 62.7652 27.1729 63.1341 26.9345C58.4936 20.1439 51.2648 19.2137 48.6888 19.1061C42.5369 18.4832 36.6849 22.7281 33.5627 22.7281C30.4483 22.7281 25.6304 19.1982 20.5283 19.291C13.8228 19.3906 7.64001 23.1899 4.18731 29.1953C-2.7795 41.2844 2.40318 59.1937 9.19347 68.9982C12.5115 73.7974 16.468 79.1876 21.6627 78.9951C26.6651 78.7954 28.5568 75.7581 34.6048 75.7581C40.6526 75.7581 42.3528 78.9951 47.6466 78.8957C53.0297 78.7957 56.4401 74.0046 59.7353 69.1907C63.5455 63.6231 65.1144 58.2327 65.2069 57.9561C65.0874 57.9014 54.71 53.926 54.606 41.9758ZM44.6588 12.6155C47.4159 9.27046 49.2769 4.62968 48.7692 0C44.7978 0.161703 39.9839 2.64542 37.1345 5.98286C34.5778 8.94351 32.3397 13.6689 32.9395 18.2059C37.373 18.5519 41.8987 15.9529 44.6588 12.6155Z" fill="white"/>
</svg>
