<svg width="19" height="27" viewBox="0 0 19 27" fill="none" xmlns="http://www.w3.org/2000/svg">
<path d="M18.3605 6.96625C18.2644 6.6194 18.0692 6.24981 17.9248 5.92623C16.1972 1.928 12.4223 0.495117 9.3742 0.495117C5.29382 0.495117 0.799762 3.12985 0.199768 8.56066V9.6702C0.199768 9.7165 0.21634 10.1325 0.239881 10.3405C0.576224 12.9287 2.69705 15.6794 4.28096 18.2676C5.98502 21.0406 7.75324 23.7684 9.50508 26.4951C10.5853 24.7157 11.6616 22.9129 12.7172 21.1796C13.0049 20.6709 13.3389 20.1625 13.6269 19.677C13.8188 19.3537 14.1856 19.0304 14.3531 18.7296C16.0571 15.7254 18.7999 12.6979 18.7999 9.71644V8.49162C18.8 8.1684 18.3839 7.03595 18.3605 6.96625ZM9.4489 12.5362C8.24947 12.5362 6.93662 11.9586 6.2886 10.3637C6.19205 10.1098 6.19984 9.60099 6.19984 9.55438V8.83794C6.19984 6.80467 7.99266 5.88004 9.55235 5.88004C11.4725 5.88004 12.9575 7.35935 12.9575 9.20837C12.9575 11.0573 11.369 12.5362 9.4489 12.5362Z" fill="#A5A5A5"/>
</svg>
