<svg width="22" height="17" viewBox="0 0 22 17" fill="none" xmlns="http://www.w3.org/2000/svg">
<path d="M21.4999 2.41487H20.6699C20.3617 2.41487 19.9259 2.85242 19.9259 3.13255V13.2857C19.9259 13.5661 20.3617 13.9484 20.6699 13.9484H21.4999V16.3584H13.9798V13.9484H15.5538V3.27559H15.4766L11.8011 16.3584H8.95542L5.32729 3.27559H5.23547V13.9484H6.80945V16.3584H0.51355V13.9484H1.31973C1.65174 13.9484 2.08752 13.5661 2.08752 13.2857V3.13255C2.08752 2.85242 1.65174 2.41487 1.31973 2.41487H0.51355V0.00488175H8.38629L10.9711 9.47271H11.0422L13.6508 0.00488175H21.4999V2.41487Z" fill="#B4B7BB"/>
</svg>
