<svg width="21" height="18" viewBox="0 0 21 18" fill="none" xmlns="http://www.w3.org/2000/svg">
<path fill-rule="evenodd" clip-rule="evenodd" d="M20.9857 2.07705C20.2135 2.4294 19.3838 2.66655 18.5132 2.77434C19.4019 2.22661 20.0846 1.35954 20.4059 0.326733C19.574 0.833704 18.6526 1.20189 17.6718 1.4003C16.8868 0.540975 15.7675 0.00537109 14.5293 0.00537109C12.1519 0.00537109 10.2238 1.98609 10.2238 4.42831C10.2238 4.77528 10.2615 5.11281 10.3353 5.43653C6.75647 5.25126 3.5836 3.48949 1.46037 0.81484C1.08983 1.46834 0.877507 2.22762 0.877507 3.0381C0.877507 4.57249 1.63761 5.92615 2.79251 6.71996C2.0875 6.69638 1.42315 6.49763 0.842748 6.16583V6.22141C0.842748 8.36551 2.32819 10.1525 4.29566 10.5593C3.93495 10.6604 3.55458 10.7142 3.16338 10.7142C2.88596 10.7142 2.61577 10.6873 2.35344 10.6351C2.90105 12.3928 4.49142 13.6715 6.37527 13.7072C4.90164 14.893 3.045 15.6004 1.02703 15.6004C0.679448 15.6004 0.337436 15.5802 0.000671387 15.5387C1.90584 16.7939 4.16941 17.5262 6.60071 17.5262C14.5198 17.5262 18.8507 10.7857 18.8507 4.94118C18.8507 4.74917 18.8464 4.55885 18.8382 4.36852C19.6796 3.74533 20.4099 2.96551 20.987 2.07789" fill="#B7B7B7"/>
</svg>
